<mxfile host="Electron" modified="2023-06-18T10:38:48.833Z" agent="Mozilla/5.0 (Windows NT 10.0; Win64; x64) AppleWebKit/537.36 (KHTML, like Gecko) draw.io/21.2.8 Chrome/112.0.5615.165 Electron/24.2.0 Safari/537.36" etag="LuOapMbKun89Kfm5tnwp" version="21.2.8" type="device">
  <diagram name="Page-1" id="QEAtcujq0R9YtB7m2jka">
    <mxGraphModel dx="1036" dy="606" grid="1" gridSize="10" guides="1" tooltips="1" connect="1" arrows="1" fold="1" page="1" pageScale="1" pageWidth="1169" pageHeight="1654" background="none" math="0" shadow="0">
      <root>
        <mxCell id="0" />
        <mxCell id="1" parent="0" />
        <mxCell id="Q5sI1NLIctSWAqXv6nS5-2" value="" style="rounded=0;whiteSpace=wrap;html=1;fillColor=none;" parent="1" vertex="1">
          <mxGeometry x="237.59" y="85" width="702.41" height="3180" as="geometry" />
        </mxCell>
        <mxCell id="Q5sI1NLIctSWAqXv6nS5-3" value="Owner" style="shape=umlActor;verticalLabelPosition=bottom;verticalAlign=top;html=1;outlineConnect=0;" parent="1" vertex="1">
          <mxGeometry x="110" y="610" width="60" height="130" as="geometry" />
        </mxCell>
        <mxCell id="Q5sI1NLIctSWAqXv6nS5-5" value="Login" style="ellipse;whiteSpace=wrap;html=1;" parent="1" vertex="1">
          <mxGeometry x="490" y="110" width="80" height="40" as="geometry" />
        </mxCell>
        <mxCell id="Q5sI1NLIctSWAqXv6nS5-6" value="Add Employee" style="ellipse;whiteSpace=wrap;html=1;" parent="1" vertex="1">
          <mxGeometry x="492.86" y="170" width="95" height="30" as="geometry" />
        </mxCell>
        <mxCell id="Q5sI1NLIctSWAqXv6nS5-7" value="View leaves" style="ellipse;whiteSpace=wrap;html=1;" parent="1" vertex="1">
          <mxGeometry x="470.63" y="680" width="97.5" height="30" as="geometry" />
        </mxCell>
        <mxCell id="Q5sI1NLIctSWAqXv6nS5-8" value="Delete Employee" style="ellipse;whiteSpace=wrap;html=1;" parent="1" vertex="1">
          <mxGeometry x="490.95000000000005" y="250" width="105" height="30" as="geometry" />
        </mxCell>
        <mxCell id="Q5sI1NLIctSWAqXv6nS5-9" value="Update Employee" style="ellipse;whiteSpace=wrap;html=1;" parent="1" vertex="1">
          <mxGeometry x="488.46000000000004" y="210" width="107.49" height="30" as="geometry" />
        </mxCell>
        <mxCell id="Q5sI1NLIctSWAqXv6nS5-10" value="Recover/Change Password" style="ellipse;whiteSpace=wrap;html=1;" parent="1" vertex="1">
          <mxGeometry x="721.26" y="115" width="158.74" height="35" as="geometry" />
        </mxCell>
        <mxCell id="Q5sI1NLIctSWAqXv6nS5-11" value="Add dependent" style="ellipse;whiteSpace=wrap;html=1;" parent="1" vertex="1">
          <mxGeometry x="503.84999999999997" y="330" width="95" height="30" as="geometry" />
        </mxCell>
        <mxCell id="Q5sI1NLIctSWAqXv6nS5-12" value="Reject Leaves" style="ellipse;whiteSpace=wrap;html=1;" parent="1" vertex="1">
          <mxGeometry x="707.12" y="680" width="90" height="30" as="geometry" />
        </mxCell>
        <mxCell id="Q5sI1NLIctSWAqXv6nS5-13" value="Accept leaves" style="ellipse;whiteSpace=wrap;html=1;" parent="1" vertex="1">
          <mxGeometry x="705.4499999999999" y="620" width="90" height="30" as="geometry" />
        </mxCell>
        <mxCell id="Q5sI1NLIctSWAqXv6nS5-14" value="Delete Dependent" style="ellipse;whiteSpace=wrap;html=1;" parent="1" vertex="1">
          <mxGeometry x="499.38" y="410" width="104.99" height="30" as="geometry" />
        </mxCell>
        <mxCell id="Q5sI1NLIctSWAqXv6nS5-15" value="Update Dependent" style="ellipse;whiteSpace=wrap;html=1;" parent="1" vertex="1">
          <mxGeometry x="499.62999999999994" y="370" width="108.12" height="30" as="geometry" />
        </mxCell>
        <mxCell id="MwN462WdX53HP3Wrhr0R-2" value="Calculate Salaries" style="ellipse;whiteSpace=wrap;html=1;" parent="1" vertex="1">
          <mxGeometry x="455.8599999999999" y="720" width="112.18" height="30" as="geometry" />
        </mxCell>
        <mxCell id="MwN462WdX53HP3Wrhr0R-10" value="Delete Supplier" style="ellipse;whiteSpace=wrap;html=1;" parent="1" vertex="1">
          <mxGeometry x="493.28" y="610" width="92.5" height="30" as="geometry" />
        </mxCell>
        <mxCell id="MwN462WdX53HP3Wrhr0R-11" value="Update Supplier" style="ellipse;whiteSpace=wrap;html=1;" parent="1" vertex="1">
          <mxGeometry x="491.8099999999999" y="530" width="92.19" height="30" as="geometry" />
        </mxCell>
        <mxCell id="MwN462WdX53HP3Wrhr0R-12" value="Add Supplier" style="ellipse;whiteSpace=wrap;html=1;" parent="1" vertex="1">
          <mxGeometry x="503.8500000000001" y="490" width="86.25" height="30" as="geometry" />
        </mxCell>
        <mxCell id="MwN462WdX53HP3Wrhr0R-16" value="Remove Welfare Categories" style="ellipse;whiteSpace=wrap;html=1;" parent="1" vertex="1">
          <mxGeometry x="434.84" y="930" width="158.13" height="30" as="geometry" />
        </mxCell>
        <mxCell id="MwN462WdX53HP3Wrhr0R-17" value="Add Welfare Categories" style="ellipse;whiteSpace=wrap;html=1;" parent="1" vertex="1">
          <mxGeometry x="462.33000000000004" y="850" width="134.38" height="30" as="geometry" />
        </mxCell>
        <mxCell id="MwN462WdX53HP3Wrhr0R-18" value="Update Welfare Categories" style="ellipse;whiteSpace=wrap;html=1;" parent="1" vertex="1">
          <mxGeometry x="456.37999999999994" y="892" width="148.13" height="30" as="geometry" />
        </mxCell>
        <mxCell id="MwN462WdX53HP3Wrhr0R-19" value="Confirm Purchase Orders" style="ellipse;whiteSpace=wrap;html=1;" parent="1" vertex="1">
          <mxGeometry x="710.7800000000001" y="1040" width="139.99" height="30" as="geometry" />
        </mxCell>
        <mxCell id="MwN462WdX53HP3Wrhr0R-22" value="Delete Purchase Orders" style="ellipse;whiteSpace=wrap;html=1;" parent="1" vertex="1">
          <mxGeometry x="705.4499999999999" y="1080" width="136.24" height="30" as="geometry" />
        </mxCell>
        <mxCell id="MwN462WdX53HP3Wrhr0R-23" value="Pharmacist" style="shape=umlActor;verticalLabelPosition=bottom;verticalAlign=top;html=1;outlineConnect=0;" parent="1" vertex="1">
          <mxGeometry x="121.82000000000001" y="2123" width="60" height="120" as="geometry" />
        </mxCell>
        <mxCell id="MwN462WdX53HP3Wrhr0R-40" value="Generate Purchase Orders" style="ellipse;whiteSpace=wrap;html=1;" parent="1" vertex="1">
          <mxGeometry x="466.23999999999995" y="2272" width="154.98" height="39" as="geometry" />
        </mxCell>
        <mxCell id="MwN462WdX53HP3Wrhr0R-41" value="Generate GRN" style="ellipse;whiteSpace=wrap;html=1;" parent="1" vertex="1">
          <mxGeometry x="484.49" y="2192" width="114.37" height="30" as="geometry" />
        </mxCell>
        <mxCell id="MwN462WdX53HP3Wrhr0R-45" value="Cashier" style="shape=umlActor;verticalLabelPosition=bottom;verticalAlign=top;html=1;outlineConnect=0;" parent="1" vertex="1">
          <mxGeometry x="120.54" y="2965" width="60" height="110" as="geometry" />
        </mxCell>
        <mxCell id="MwN462WdX53HP3Wrhr0R-46" value="Login" style="ellipse;whiteSpace=wrap;html=1;" parent="1" vertex="1">
          <mxGeometry x="483.36" y="2710" width="100" height="40" as="geometry" />
        </mxCell>
        <mxCell id="MwN462WdX53HP3Wrhr0R-52" value="View Attendance" style="ellipse;whiteSpace=wrap;html=1;" parent="1" vertex="1">
          <mxGeometry x="421.9699999999999" y="640" width="113.75" height="30" as="geometry" />
        </mxCell>
        <mxCell id="MwN462WdX53HP3Wrhr0R-54" value="View Purchase Orders" style="ellipse;whiteSpace=wrap;html=1;" parent="1" vertex="1">
          <mxGeometry x="447.6" y="1060" width="135" height="30" as="geometry" />
        </mxCell>
        <mxCell id="MwN462WdX53HP3Wrhr0R-55" value="Logout" style="ellipse;whiteSpace=wrap;html=1;" parent="1" vertex="1">
          <mxGeometry x="442.64" y="1160" width="102.19" height="20" as="geometry" />
        </mxCell>
        <mxCell id="V4gFKh730yY_iykvgxMV-1" value="Logout" style="ellipse;whiteSpace=wrap;html=1;" parent="1" vertex="1">
          <mxGeometry x="476.08" y="3170" width="99.68" height="40" as="geometry" />
        </mxCell>
        <mxCell id="V4gFKh730yY_iykvgxMV-3" value="Generate Monthly Attendance Reports" style="ellipse;whiteSpace=wrap;html=1;" parent="1" vertex="1">
          <mxGeometry x="680.46" y="1160" width="227.28" height="30" as="geometry" />
        </mxCell>
        <mxCell id="V4gFKh730yY_iykvgxMV-5" value="Generate Monthly Stock Reports" style="ellipse;whiteSpace=wrap;html=1;" parent="1" vertex="1">
          <mxGeometry x="720.47" y="2527" width="157.5" height="50" as="geometry" />
        </mxCell>
        <mxCell id="V4gFKh730yY_iykvgxMV-9" value="Generate Monthly Damaged Product Report" style="ellipse;whiteSpace=wrap;html=1;" parent="1" vertex="1">
          <mxGeometry x="668.3699999999999" y="2588" width="224.37" height="50" as="geometry" />
        </mxCell>
        <mxCell id="V4gFKh730yY_iykvgxMV-10" value="Generate Monthly Purchased Product Reports" style="ellipse;whiteSpace=wrap;html=1;" parent="1" vertex="1">
          <mxGeometry x="706.9799999999999" y="2466" width="198.74" height="50" as="geometry" />
        </mxCell>
        <mxCell id="BExlb4tpSsVmUyJSPoVb-3" value="" style="endArrow=classic;html=1;rounded=0;dashed=1;exitX=0;exitY=0.5;exitDx=0;exitDy=0;entryX=1;entryY=0.5;entryDx=0;entryDy=0;" parent="1" source="Q5sI1NLIctSWAqXv6nS5-10" target="Q5sI1NLIctSWAqXv6nS5-5" edge="1">
          <mxGeometry width="50" height="50" relative="1" as="geometry">
            <mxPoint x="570" y="200" as="sourcePoint" />
            <mxPoint x="620" y="150" as="targetPoint" />
          </mxGeometry>
        </mxCell>
        <mxCell id="BExlb4tpSsVmUyJSPoVb-15" value="" style="endArrow=classic;html=1;rounded=0;dashed=1;exitX=0;exitY=0.5;exitDx=0;exitDy=0;entryX=1;entryY=1;entryDx=0;entryDy=0;" parent="1" source="Q5sI1NLIctSWAqXv6nS5-12" target="Q5sI1NLIctSWAqXv6nS5-7" edge="1">
          <mxGeometry width="50" height="50" relative="1" as="geometry">
            <mxPoint x="740.14" y="792" as="sourcePoint" />
            <mxPoint x="587.89" y="750" as="targetPoint" />
          </mxGeometry>
        </mxCell>
        <mxCell id="BExlb4tpSsVmUyJSPoVb-16" value="" style="endArrow=classic;html=1;rounded=0;dashed=1;exitX=0;exitY=0.5;exitDx=0;exitDy=0;" parent="1" source="Q5sI1NLIctSWAqXv6nS5-13" target="Q5sI1NLIctSWAqXv6nS5-7" edge="1">
          <mxGeometry width="50" height="50" relative="1" as="geometry">
            <mxPoint x="742.39" y="725" as="sourcePoint" />
            <mxPoint x="590.14" y="683" as="targetPoint" />
          </mxGeometry>
        </mxCell>
        <mxCell id="BExlb4tpSsVmUyJSPoVb-27" value="" style="endArrow=classic;html=1;rounded=0;dashed=1;exitX=0;exitY=0.5;exitDx=0;exitDy=0;entryX=1;entryY=0.5;entryDx=0;entryDy=0;" parent="1" source="MwN462WdX53HP3Wrhr0R-19" target="MwN462WdX53HP3Wrhr0R-54" edge="1">
          <mxGeometry width="50" height="50" relative="1" as="geometry">
            <mxPoint x="711.5500000000001" y="1110" as="sourcePoint" />
            <mxPoint x="573.86" y="1070" as="targetPoint" />
          </mxGeometry>
        </mxCell>
        <mxCell id="BExlb4tpSsVmUyJSPoVb-28" value="" style="endArrow=classic;html=1;rounded=0;dashed=1;exitX=0;exitY=0.5;exitDx=0;exitDy=0;entryX=1;entryY=1;entryDx=0;entryDy=0;" parent="1" source="MwN462WdX53HP3Wrhr0R-22" target="MwN462WdX53HP3Wrhr0R-54" edge="1">
          <mxGeometry width="50" height="50" relative="1" as="geometry">
            <mxPoint x="714.5300000000001" y="1160" as="sourcePoint" />
            <mxPoint x="576.84" y="1120" as="targetPoint" />
          </mxGeometry>
        </mxCell>
        <mxCell id="BExlb4tpSsVmUyJSPoVb-34" value="" style="endArrow=none;html=1;rounded=0;entryX=0;entryY=0.5;entryDx=0;entryDy=0;exitX=0.5;exitY=0.5;exitDx=0;exitDy=0;exitPerimeter=0;" parent="1" source="Q5sI1NLIctSWAqXv6nS5-3" target="Q5sI1NLIctSWAqXv6nS5-5" edge="1">
          <mxGeometry width="50" height="50" relative="1" as="geometry">
            <mxPoint x="220" y="230" as="sourcePoint" />
            <mxPoint x="140" y="350" as="targetPoint" />
          </mxGeometry>
        </mxCell>
        <mxCell id="BExlb4tpSsVmUyJSPoVb-38" value="" style="endArrow=none;html=1;rounded=0;exitX=0.5;exitY=0.5;exitDx=0;exitDy=0;exitPerimeter=0;entryX=0;entryY=0.5;entryDx=0;entryDy=0;" parent="1" source="Q5sI1NLIctSWAqXv6nS5-3" target="xio8uf8bzyfZE7CixAmZ-2" edge="1">
          <mxGeometry width="50" height="50" relative="1" as="geometry">
            <mxPoint x="150" y="720" as="sourcePoint" />
            <mxPoint x="505" y="1410" as="targetPoint" />
          </mxGeometry>
        </mxCell>
        <mxCell id="BExlb4tpSsVmUyJSPoVb-39" value="" style="endArrow=none;html=1;rounded=0;entryX=0;entryY=0.5;entryDx=0;entryDy=0;exitX=0.5;exitY=0.5;exitDx=0;exitDy=0;exitPerimeter=0;" parent="1" source="Q5sI1NLIctSWAqXv6nS5-3" target="MwN462WdX53HP3Wrhr0R-55" edge="1">
          <mxGeometry width="50" height="50" relative="1" as="geometry">
            <mxPoint x="150" y="720" as="sourcePoint" />
            <mxPoint x="490" y="1490" as="targetPoint" />
          </mxGeometry>
        </mxCell>
        <mxCell id="BExlb4tpSsVmUyJSPoVb-43" value="" style="endArrow=none;html=1;rounded=0;entryX=0;entryY=0.5;entryDx=0;entryDy=0;exitX=0.5;exitY=0.5;exitDx=0;exitDy=0;exitPerimeter=0;" parent="1" source="Q5sI1NLIctSWAqXv6nS5-3" target="Q5sI1NLIctSWAqXv6nS5-6" edge="1">
          <mxGeometry width="50" height="50" relative="1" as="geometry">
            <mxPoint x="190" y="680" as="sourcePoint" />
            <mxPoint x="496.7099999999989" y="350" as="targetPoint" />
          </mxGeometry>
        </mxCell>
        <mxCell id="BExlb4tpSsVmUyJSPoVb-44" value="" style="endArrow=none;html=1;rounded=0;entryX=0;entryY=0.5;entryDx=0;entryDy=0;exitX=0.5;exitY=0.5;exitDx=0;exitDy=0;exitPerimeter=0;" parent="1" source="Q5sI1NLIctSWAqXv6nS5-3" target="Q5sI1NLIctSWAqXv6nS5-7" edge="1">
          <mxGeometry width="50" height="50" relative="1" as="geometry">
            <mxPoint x="218.13" y="730" as="sourcePoint" />
            <mxPoint x="488.13" y="630" as="targetPoint" />
          </mxGeometry>
        </mxCell>
        <mxCell id="BExlb4tpSsVmUyJSPoVb-47" value="" style="endArrow=none;html=1;rounded=0;entryX=0;entryY=0.5;entryDx=0;entryDy=0;exitX=0.5;exitY=0.5;exitDx=0;exitDy=0;exitPerimeter=0;" parent="1" source="Q5sI1NLIctSWAqXv6nS5-3" target="KRZ9-9LXO8qgHQVIgoL1-6" edge="1">
          <mxGeometry width="50" height="50" relative="1" as="geometry">
            <mxPoint x="220" y="1050" as="sourcePoint" />
            <mxPoint x="481.6500000000017" y="825" as="targetPoint" />
          </mxGeometry>
        </mxCell>
        <mxCell id="BExlb4tpSsVmUyJSPoVb-48" value="" style="endArrow=none;html=1;rounded=0;entryX=0;entryY=0.5;entryDx=0;entryDy=0;exitX=0.5;exitY=0.5;exitDx=0;exitDy=0;exitPerimeter=0;" parent="1" source="Q5sI1NLIctSWAqXv6nS5-3" target="MwN462WdX53HP3Wrhr0R-54" edge="1">
          <mxGeometry width="50" height="50" relative="1" as="geometry">
            <mxPoint x="210" y="1190" as="sourcePoint" />
            <mxPoint x="480" y="1090" as="targetPoint" />
          </mxGeometry>
        </mxCell>
        <mxCell id="BExlb4tpSsVmUyJSPoVb-49" value="" style="endArrow=none;html=1;rounded=0;entryX=0;entryY=0.5;entryDx=0;entryDy=0;exitX=0.5;exitY=0.5;exitDx=0;exitDy=0;exitPerimeter=0;" parent="1" source="Q5sI1NLIctSWAqXv6nS5-3" target="MwN462WdX53HP3Wrhr0R-2" edge="1">
          <mxGeometry width="50" height="50" relative="1" as="geometry">
            <mxPoint x="215" y="895" as="sourcePoint" />
            <mxPoint x="485" y="795" as="targetPoint" />
          </mxGeometry>
        </mxCell>
        <mxCell id="BExlb4tpSsVmUyJSPoVb-51" value="" style="endArrow=none;html=1;rounded=0;exitX=0.5;exitY=0.5;exitDx=0;exitDy=0;exitPerimeter=0;entryX=0;entryY=0.5;entryDx=0;entryDy=0;" parent="1" source="MwN462WdX53HP3Wrhr0R-23" target="MwN462WdX53HP3Wrhr0R-41" edge="1">
          <mxGeometry width="50" height="50" relative="1" as="geometry">
            <mxPoint x="211.82" y="2385" as="sourcePoint" />
            <mxPoint x="489.82" y="2118" as="targetPoint" />
          </mxGeometry>
        </mxCell>
        <mxCell id="BExlb4tpSsVmUyJSPoVb-52" value="" style="endArrow=none;html=1;rounded=0;entryX=0;entryY=0.5;entryDx=0;entryDy=0;exitX=0.5;exitY=0.5;exitDx=0;exitDy=0;exitPerimeter=0;" parent="1" source="MwN462WdX53HP3Wrhr0R-23" target="MwN462WdX53HP3Wrhr0R-40" edge="1">
          <mxGeometry width="50" height="50" relative="1" as="geometry">
            <mxPoint x="171.82" y="2508" as="sourcePoint" />
            <mxPoint x="479.82" y="2141" as="targetPoint" />
          </mxGeometry>
        </mxCell>
        <mxCell id="BExlb4tpSsVmUyJSPoVb-60" value="" style="endArrow=none;html=1;rounded=0;entryX=0;entryY=0.5;entryDx=0;entryDy=0;exitX=0.5;exitY=0.5;exitDx=0;exitDy=0;exitPerimeter=0;" parent="1" source="MwN462WdX53HP3Wrhr0R-23" target="P2EhbW7e4J90J0i8LFkU-4" edge="1">
          <mxGeometry width="50" height="50" relative="1" as="geometry">
            <mxPoint x="181.82" y="2518" as="sourcePoint" />
            <mxPoint x="434.82" y="2953" as="targetPoint" />
          </mxGeometry>
        </mxCell>
        <mxCell id="BExlb4tpSsVmUyJSPoVb-70" value="" style="endArrow=none;html=1;rounded=0;entryX=0;entryY=0.5;entryDx=0;entryDy=0;exitX=0.5;exitY=0.5;exitDx=0;exitDy=0;exitPerimeter=0;" parent="1" source="MwN462WdX53HP3Wrhr0R-45" target="MwN462WdX53HP3Wrhr0R-46" edge="1">
          <mxGeometry width="50" height="50" relative="1" as="geometry">
            <mxPoint x="550.54" y="2700" as="sourcePoint" />
            <mxPoint x="600.54" y="2650" as="targetPoint" />
          </mxGeometry>
        </mxCell>
        <mxCell id="BExlb4tpSsVmUyJSPoVb-73" value="" style="endArrow=none;html=1;rounded=0;entryX=0;entryY=0.5;entryDx=0;entryDy=0;exitX=0.5;exitY=0.5;exitDx=0;exitDy=0;exitPerimeter=0;" parent="1" source="MwN462WdX53HP3Wrhr0R-45" target="V4gFKh730yY_iykvgxMV-1" edge="1">
          <mxGeometry width="50" height="50" relative="1" as="geometry">
            <mxPoint x="240.54" y="2703" as="sourcePoint" />
            <mxPoint x="488.6700000000042" y="3200" as="targetPoint" />
          </mxGeometry>
        </mxCell>
        <mxCell id="BExlb4tpSsVmUyJSPoVb-80" value="&amp;lt;&amp;lt;Extend&amp;gt;&amp;gt;" style="text;html=1;strokeColor=none;fillColor=none;align=center;verticalAlign=middle;whiteSpace=wrap;rounded=0;rotation=0;" parent="1" vertex="1">
          <mxGeometry x="653.09" y="1070" width="31.87" height="10" as="geometry" />
        </mxCell>
        <mxCell id="BExlb4tpSsVmUyJSPoVb-83" value="&amp;lt;&amp;lt;Extend&amp;gt;&amp;gt;" style="text;html=1;strokeColor=none;fillColor=none;align=center;verticalAlign=middle;whiteSpace=wrap;rounded=0;rotation=0;" parent="1" vertex="1">
          <mxGeometry x="632.7300000000002" y="1050" width="31.87" height="10" as="geometry" />
        </mxCell>
        <mxCell id="BExlb4tpSsVmUyJSPoVb-94" value="&amp;lt;&amp;lt;Extend&amp;gt;&amp;gt;" style="text;html=1;strokeColor=none;fillColor=none;align=center;verticalAlign=middle;whiteSpace=wrap;rounded=0;rotation=0;" parent="1" vertex="1">
          <mxGeometry x="647.2400000000001" y="680" width="31.87" height="10" as="geometry" />
        </mxCell>
        <mxCell id="BExlb4tpSsVmUyJSPoVb-95" value="&amp;lt;&amp;lt;Extend&amp;gt;&amp;gt;" style="text;html=1;strokeColor=none;fillColor=none;align=center;verticalAlign=middle;whiteSpace=wrap;rounded=0;rotation=0;" parent="1" vertex="1">
          <mxGeometry x="619.5300000000001" y="630" width="31.87" height="10" as="geometry" />
        </mxCell>
        <mxCell id="BExlb4tpSsVmUyJSPoVb-107" value="&amp;lt;&amp;lt;Extend&amp;gt;&amp;gt;" style="text;html=1;strokeColor=none;fillColor=none;align=center;verticalAlign=middle;whiteSpace=wrap;rounded=0;rotation=0;" parent="1" vertex="1">
          <mxGeometry x="651.2600000000001" y="115" width="31.87" height="10" as="geometry" />
        </mxCell>
        <mxCell id="xio8uf8bzyfZE7CixAmZ-2" value="Generate Reports" style="ellipse;whiteSpace=wrap;html=1;container=1;" parent="1" vertex="1">
          <mxGeometry x="453.59999999999997" y="1110" width="127.18" height="30" as="geometry" />
        </mxCell>
        <mxCell id="gv8k1M0dW-L6lmBYSd9N-2" value="Print Invoice" style="ellipse;whiteSpace=wrap;html=1;" parent="1" vertex="1">
          <mxGeometry x="637.96" y="3100" width="92.04" height="30" as="geometry" />
        </mxCell>
        <mxCell id="R_i7F-9IJZue17gUuxtt-1" value="Generate Invoice" style="ellipse;whiteSpace=wrap;html=1;" parent="1" vertex="1">
          <mxGeometry x="473.05" y="3028" width="108.13" height="50" as="geometry" />
        </mxCell>
        <mxCell id="R_i7F-9IJZue17gUuxtt-4" value="" style="endArrow=classic;html=1;rounded=0;dashed=1;exitX=0;exitY=0.5;exitDx=0;exitDy=0;entryX=1;entryY=1;entryDx=0;entryDy=0;" parent="1" source="V4gFKh730yY_iykvgxMV-3" target="xio8uf8bzyfZE7CixAmZ-2" edge="1">
          <mxGeometry width="50" height="50" relative="1" as="geometry">
            <mxPoint x="696.7800000000001" y="1437" as="sourcePoint" />
            <mxPoint x="640.14" y="1410" as="targetPoint" />
          </mxGeometry>
        </mxCell>
        <mxCell id="R_i7F-9IJZue17gUuxtt-5" value="&amp;lt;&amp;lt;Extend&amp;gt;&amp;gt;" style="text;html=1;strokeColor=none;fillColor=none;align=center;verticalAlign=middle;whiteSpace=wrap;rounded=0;rotation=0;" parent="1" vertex="1">
          <mxGeometry x="632.73" y="1140" width="31.87" height="10" as="geometry" />
        </mxCell>
        <mxCell id="R_i7F-9IJZue17gUuxtt-9" value="View Order" style="ellipse;whiteSpace=wrap;html=1;" parent="1" vertex="1">
          <mxGeometry x="472.91" y="2054" width="111.09" height="30" as="geometry" />
        </mxCell>
        <mxCell id="R_i7F-9IJZue17gUuxtt-10" value="" style="endArrow=none;html=1;rounded=0;exitX=0.5;exitY=0.5;exitDx=0;exitDy=0;exitPerimeter=0;entryX=0;entryY=0.5;entryDx=0;entryDy=0;" parent="1" source="MwN462WdX53HP3Wrhr0R-23" target="ypZqmbvmOLywoXULESOY-15" edge="1">
          <mxGeometry width="50" height="50" relative="1" as="geometry">
            <mxPoint x="581.8199999999999" y="2568" as="sourcePoint" />
            <mxPoint x="631.8199999999999" y="2518" as="targetPoint" />
          </mxGeometry>
        </mxCell>
        <mxCell id="KRZ9-9LXO8qgHQVIgoL1-1" value="" style="endArrow=none;html=1;rounded=0;entryX=0;entryY=0.5;entryDx=0;entryDy=0;exitX=0.5;exitY=0.5;exitDx=0;exitDy=0;exitPerimeter=0;" parent="1" source="Q5sI1NLIctSWAqXv6nS5-3" target="MwN462WdX53HP3Wrhr0R-52" edge="1">
          <mxGeometry width="50" height="50" relative="1" as="geometry">
            <mxPoint x="397.5" y="623" as="sourcePoint" />
            <mxPoint x="447.5" y="573" as="targetPoint" />
          </mxGeometry>
        </mxCell>
        <mxCell id="KRZ9-9LXO8qgHQVIgoL1-6" value="Allocate Welfare Allowances" style="ellipse;whiteSpace=wrap;html=1;" parent="1" vertex="1">
          <mxGeometry x="454.53000000000014" y="770" width="156.86" height="30" as="geometry" />
        </mxCell>
        <mxCell id="KRZ9-9LXO8qgHQVIgoL1-13" value="Generate&amp;nbsp; Monthly Finance Reports" style="ellipse;whiteSpace=wrap;html=1;" parent="1" vertex="1">
          <mxGeometry x="703.3799999999999" y="1120" width="205.94" height="30" as="geometry" />
        </mxCell>
        <mxCell id="KRZ9-9LXO8qgHQVIgoL1-14" value="&amp;lt;&amp;lt;Extend&amp;gt;&amp;gt;" style="text;html=1;strokeColor=none;fillColor=none;align=center;verticalAlign=middle;whiteSpace=wrap;rounded=0;rotation=0;" parent="1" vertex="1">
          <mxGeometry x="632.7300000000002" y="1110" width="31.87" height="10" as="geometry" />
        </mxCell>
        <mxCell id="KRZ9-9LXO8qgHQVIgoL1-15" value="" style="endArrow=classic;html=1;rounded=0;dashed=1;exitX=0;exitY=0.5;exitDx=0;exitDy=0;entryX=1;entryY=0;entryDx=0;entryDy=0;" parent="1" source="KRZ9-9LXO8qgHQVIgoL1-13" target="xio8uf8bzyfZE7CixAmZ-2" edge="1">
          <mxGeometry width="50" height="50" relative="1" as="geometry">
            <mxPoint x="718.0300000000001" y="1387" as="sourcePoint" />
            <mxPoint x="661.14" y="1399" as="targetPoint" />
          </mxGeometry>
        </mxCell>
        <mxCell id="P2EhbW7e4J90J0i8LFkU-4" value=".Generate Reports" style="ellipse;whiteSpace=wrap;html=1;container=1;" parent="1" vertex="1">
          <mxGeometry x="478.03000000000003" y="2532" width="137.8" height="40" as="geometry" />
        </mxCell>
        <mxCell id="P2EhbW7e4J90J0i8LFkU-7" value="&amp;lt;&amp;lt;Extend&amp;gt;&amp;gt;" style="text;html=1;strokeColor=none;fillColor=none;align=center;verticalAlign=middle;whiteSpace=wrap;rounded=0;rotation=0;" parent="1" vertex="1">
          <mxGeometry x="668.69" y="2527" width="31.87" height="14" as="geometry" />
        </mxCell>
        <mxCell id="P2EhbW7e4J90J0i8LFkU-8" value="&amp;lt;&amp;lt;Extend&amp;gt;&amp;gt;" style="text;html=1;strokeColor=none;fillColor=none;align=center;verticalAlign=middle;whiteSpace=wrap;rounded=0;rotation=0;" parent="1" vertex="1">
          <mxGeometry x="668.3699999999999" y="2562" width="32.19" height="26" as="geometry" />
        </mxCell>
        <mxCell id="P2EhbW7e4J90J0i8LFkU-9" value="&amp;lt;&amp;lt;Extend&amp;gt;&amp;gt;" style="text;html=1;strokeColor=none;fillColor=none;align=center;verticalAlign=middle;whiteSpace=wrap;rounded=0;rotation=0;" parent="1" vertex="1">
          <mxGeometry x="636.2399999999999" y="2484" width="31.87" height="14" as="geometry" />
        </mxCell>
        <mxCell id="P2EhbW7e4J90J0i8LFkU-10" value="" style="endArrow=classic;html=1;rounded=0;dashed=1;exitX=0;exitY=0;exitDx=0;exitDy=0;entryX=1;entryY=1;entryDx=0;entryDy=0;" parent="1" source="V4gFKh730yY_iykvgxMV-9" target="P2EhbW7e4J90J0i8LFkU-4" edge="1">
          <mxGeometry width="50" height="50" relative="1" as="geometry">
            <mxPoint x="616.0699999999999" y="2577" as="sourcePoint" />
            <mxPoint x="558.0699999999999" y="2558" as="targetPoint" />
          </mxGeometry>
        </mxCell>
        <mxCell id="P2EhbW7e4J90J0i8LFkU-11" value="" style="endArrow=classic;html=1;rounded=0;dashed=1;exitX=0;exitY=0.5;exitDx=0;exitDy=0;entryX=1;entryY=0.5;entryDx=0;entryDy=0;" parent="1" source="V4gFKh730yY_iykvgxMV-5" target="P2EhbW7e4J90J0i8LFkU-4" edge="1">
          <mxGeometry width="50" height="50" relative="1" as="geometry">
            <mxPoint x="619.8199999999999" y="2732.5" as="sourcePoint" />
            <mxPoint x="561.8199999999999" y="2713.5" as="targetPoint" />
          </mxGeometry>
        </mxCell>
        <mxCell id="P2EhbW7e4J90J0i8LFkU-12" value="" style="endArrow=classic;html=1;rounded=0;dashed=1;exitX=0;exitY=0.5;exitDx=0;exitDy=0;entryX=1;entryY=0;entryDx=0;entryDy=0;" parent="1" source="V4gFKh730yY_iykvgxMV-10" target="P2EhbW7e4J90J0i8LFkU-4" edge="1">
          <mxGeometry width="50" height="50" relative="1" as="geometry">
            <mxPoint x="599.3199999999999" y="2707" as="sourcePoint" />
            <mxPoint x="541.3199999999999" y="2688" as="targetPoint" />
          </mxGeometry>
        </mxCell>
        <mxCell id="P2EhbW7e4J90J0i8LFkU-14" value="View Orders" style="ellipse;whiteSpace=wrap;html=1;" parent="1" vertex="1">
          <mxGeometry x="720.47" y="2970" width="89.53" height="30" as="geometry" />
        </mxCell>
        <mxCell id="P2EhbW7e4J90J0i8LFkU-21" value="Email Invoice" style="ellipse;whiteSpace=wrap;html=1;" parent="1" vertex="1">
          <mxGeometry x="711.76" y="3070" width="95.39" height="30" as="geometry" />
        </mxCell>
        <mxCell id="DdaBgIDJm33HpV0CEYMT-6" value="" style="endArrow=none;html=1;rounded=0;entryX=0;entryY=0.5;entryDx=0;entryDy=0;exitX=0.5;exitY=0.5;exitDx=0;exitDy=0;exitPerimeter=0;" parent="1" source="Q5sI1NLIctSWAqXv6nS5-3" target="Q5sI1NLIctSWAqXv6nS5-9" edge="1">
          <mxGeometry width="50" height="50" relative="1" as="geometry">
            <mxPoint x="560" y="590" as="sourcePoint" />
            <mxPoint x="496.7099999999989" y="480" as="targetPoint" />
          </mxGeometry>
        </mxCell>
        <mxCell id="DdaBgIDJm33HpV0CEYMT-58" value="View Daily Transactions" style="ellipse;whiteSpace=wrap;html=1;" parent="1" vertex="1">
          <mxGeometry x="447.59999999999997" y="980" width="142.5" height="30" as="geometry" />
        </mxCell>
        <mxCell id="DdaBgIDJm33HpV0CEYMT-60" value="" style="endArrow=none;html=1;rounded=0;entryX=0;entryY=0.5;entryDx=0;entryDy=0;exitX=0.5;exitY=0.5;exitDx=0;exitDy=0;exitPerimeter=0;" parent="1" source="Q5sI1NLIctSWAqXv6nS5-3" target="DdaBgIDJm33HpV0CEYMT-58" edge="1">
          <mxGeometry width="50" height="50" relative="1" as="geometry">
            <mxPoint x="160" y="725" as="sourcePoint" />
            <mxPoint x="495" y="1095" as="targetPoint" />
          </mxGeometry>
        </mxCell>
        <mxCell id="DdaBgIDJm33HpV0CEYMT-68" value="Generate Annual Welfare Reports" style="ellipse;whiteSpace=wrap;html=1;" parent="1" vertex="1">
          <mxGeometry x="651.4" y="1210" width="220" height="30" as="geometry" />
        </mxCell>
        <mxCell id="DdaBgIDJm33HpV0CEYMT-69" value="" style="endArrow=classic;html=1;rounded=0;dashed=1;exitX=0;exitY=0.5;exitDx=0;exitDy=0;entryX=0.5;entryY=1;entryDx=0;entryDy=0;" parent="1" source="DdaBgIDJm33HpV0CEYMT-68" target="xio8uf8bzyfZE7CixAmZ-2" edge="1">
          <mxGeometry width="50" height="50" relative="1" as="geometry">
            <mxPoint x="693.14" y="1410" as="sourcePoint" />
            <mxPoint x="618.14" y="1383" as="targetPoint" />
          </mxGeometry>
        </mxCell>
        <mxCell id="DdaBgIDJm33HpV0CEYMT-70" value="&amp;lt;&amp;lt;Extend&amp;gt;&amp;gt;" style="text;html=1;strokeColor=none;fillColor=none;align=center;verticalAlign=middle;whiteSpace=wrap;rounded=0;rotation=0;" parent="1" vertex="1">
          <mxGeometry x="615.23" y="1180" width="31.87" height="10" as="geometry" />
        </mxCell>
        <mxCell id="DdaBgIDJm33HpV0CEYMT-71" value="" style="endArrow=none;html=1;rounded=0;entryX=0;entryY=0.5;entryDx=0;entryDy=0;exitX=0.5;exitY=0.5;exitDx=0;exitDy=0;exitPerimeter=0;" parent="1" source="MwN462WdX53HP3Wrhr0R-45" target="R_i7F-9IJZue17gUuxtt-1" edge="1">
          <mxGeometry width="50" height="50" relative="1" as="geometry">
            <mxPoint x="560.54" y="2920" as="sourcePoint" />
            <mxPoint x="610.54" y="2870" as="targetPoint" />
          </mxGeometry>
        </mxCell>
        <mxCell id="DdaBgIDJm33HpV0CEYMT-72" value="" style="endArrow=classic;html=1;rounded=0;dashed=1;exitX=0;exitY=0.5;exitDx=0;exitDy=0;entryX=1;entryY=1;entryDx=0;entryDy=0;" parent="1" source="gv8k1M0dW-L6lmBYSd9N-2" target="R_i7F-9IJZue17gUuxtt-1" edge="1">
          <mxGeometry width="50" height="50" relative="1" as="geometry">
            <mxPoint x="672.11" y="2954" as="sourcePoint" />
            <mxPoint x="592.11" y="2900" as="targetPoint" />
          </mxGeometry>
        </mxCell>
        <mxCell id="DdaBgIDJm33HpV0CEYMT-74" value="" style="endArrow=classic;html=1;rounded=0;dashed=1;exitX=0.5;exitY=0;exitDx=0;exitDy=0;entryX=0;entryY=0.5;entryDx=0;entryDy=0;" parent="1" source="R_i7F-9IJZue17gUuxtt-1" target="P2EhbW7e4J90J0i8LFkU-14" edge="1">
          <mxGeometry width="50" height="50" relative="1" as="geometry">
            <mxPoint x="682.11" y="2964" as="sourcePoint" />
            <mxPoint x="577.54" y="2920" as="targetPoint" />
          </mxGeometry>
        </mxCell>
        <mxCell id="DdaBgIDJm33HpV0CEYMT-75" value="" style="endArrow=classic;html=1;rounded=0;dashed=1;exitX=0;exitY=0.5;exitDx=0;exitDy=0;entryX=1;entryY=0.5;entryDx=0;entryDy=0;" parent="1" source="P2EhbW7e4J90J0i8LFkU-21" target="R_i7F-9IJZue17gUuxtt-1" edge="1">
          <mxGeometry width="50" height="50" relative="1" as="geometry">
            <mxPoint x="692.11" y="2974" as="sourcePoint" />
            <mxPoint x="587.54" y="2930" as="targetPoint" />
          </mxGeometry>
        </mxCell>
        <mxCell id="DdaBgIDJm33HpV0CEYMT-76" value="View Invoices" style="ellipse;whiteSpace=wrap;html=1;" parent="1" vertex="1">
          <mxGeometry x="465.14000000000004" y="3100" width="122.19" height="50" as="geometry" />
        </mxCell>
        <mxCell id="DdaBgIDJm33HpV0CEYMT-77" value="" style="endArrow=none;html=1;rounded=0;entryX=0;entryY=0.5;entryDx=0;entryDy=0;exitX=0.5;exitY=0.5;exitDx=0;exitDy=0;exitPerimeter=0;" parent="1" source="MwN462WdX53HP3Wrhr0R-45" target="DdaBgIDJm33HpV0CEYMT-76" edge="1">
          <mxGeometry width="50" height="50" relative="1" as="geometry">
            <mxPoint x="560.54" y="2930" as="sourcePoint" />
            <mxPoint x="610.54" y="2880" as="targetPoint" />
          </mxGeometry>
        </mxCell>
        <mxCell id="DdaBgIDJm33HpV0CEYMT-78" value="&amp;lt;&amp;lt;Extend&amp;gt;&amp;gt;" style="text;html=1;strokeColor=none;fillColor=none;align=center;verticalAlign=middle;whiteSpace=wrap;rounded=0;rotation=0;" parent="1" vertex="1">
          <mxGeometry x="670.8000000000002" y="3056" width="31.87" height="14" as="geometry" />
        </mxCell>
        <mxCell id="DdaBgIDJm33HpV0CEYMT-79" value="&amp;lt;&amp;lt;Extend&amp;gt;&amp;gt;" style="text;html=1;strokeColor=none;fillColor=none;align=center;verticalAlign=middle;whiteSpace=wrap;rounded=0;rotation=0;" parent="1" vertex="1">
          <mxGeometry x="621.2200000000001" y="3086" width="31.87" height="14" as="geometry" />
        </mxCell>
        <mxCell id="DdaBgIDJm33HpV0CEYMT-80" value="&amp;lt;&amp;lt;Include&amp;gt;&amp;gt;" style="text;html=1;strokeColor=none;fillColor=none;align=center;verticalAlign=middle;whiteSpace=wrap;rounded=0;rotation=0;" parent="1" vertex="1">
          <mxGeometry x="640.1700000000001" y="2978" width="31.87" height="14" as="geometry" />
        </mxCell>
        <mxCell id="DdaBgIDJm33HpV0CEYMT-81" value="Edit Order" style="ellipse;whiteSpace=wrap;html=1;" parent="1" vertex="1">
          <mxGeometry x="480.52" y="2148" width="112.73" height="30" as="geometry" />
        </mxCell>
        <mxCell id="DdaBgIDJm33HpV0CEYMT-83" value="Send Order" style="ellipse;whiteSpace=wrap;html=1;" parent="1" vertex="1">
          <mxGeometry x="471.27" y="2102" width="114.37" height="30" as="geometry" />
        </mxCell>
        <mxCell id="DdaBgIDJm33HpV0CEYMT-89" value="View Purchase Orders" style="ellipse;whiteSpace=wrap;html=1;" parent="1" vertex="1">
          <mxGeometry x="475.89999999999986" y="2322" width="138.12" height="33.5" as="geometry" />
        </mxCell>
        <mxCell id="DdaBgIDJm33HpV0CEYMT-90" value="Edit&amp;nbsp; Purchase Orders" style="ellipse;whiteSpace=wrap;html=1;" parent="1" vertex="1">
          <mxGeometry x="475.5399999999999" y="2372" width="137.57" height="30" as="geometry" />
        </mxCell>
        <mxCell id="DdaBgIDJm33HpV0CEYMT-109" value="Apply for Leaves" style="ellipse;whiteSpace=wrap;html=1;" parent="1" vertex="1">
          <mxGeometry x="486.75000000000006" y="2760" width="153.42" height="30" as="geometry" />
        </mxCell>
        <mxCell id="DdaBgIDJm33HpV0CEYMT-113" value="" style="endArrow=none;html=1;rounded=0;exitX=0.5;exitY=0.5;exitDx=0;exitDy=0;exitPerimeter=0;entryX=0;entryY=0.5;entryDx=0;entryDy=0;" parent="1" source="MwN462WdX53HP3Wrhr0R-45" target="DdaBgIDJm33HpV0CEYMT-109" edge="1">
          <mxGeometry width="50" height="50" relative="1" as="geometry">
            <mxPoint x="890.54" y="2610" as="sourcePoint" />
            <mxPoint x="940.54" y="2560" as="targetPoint" />
          </mxGeometry>
        </mxCell>
        <mxCell id="ypZqmbvmOLywoXULESOY-4" value="View Salary" style="ellipse;whiteSpace=wrap;html=1;" parent="1" vertex="1">
          <mxGeometry x="453.21" y="2940" width="153.42" height="30" as="geometry" />
        </mxCell>
        <mxCell id="ypZqmbvmOLywoXULESOY-15" value="Generate Order" style="ellipse;whiteSpace=wrap;html=1;" parent="1" vertex="1">
          <mxGeometry x="453.55999999999995" y="2010" width="114.05" height="30" as="geometry" />
        </mxCell>
        <mxCell id="ypZqmbvmOLywoXULESOY-19" value="Send Purchase Orders" style="ellipse;whiteSpace=wrap;html=1;" parent="1" vertex="1">
          <mxGeometry x="473.42999999999995" y="2412" width="137.57" height="30" as="geometry" />
        </mxCell>
        <mxCell id="ypZqmbvmOLywoXULESOY-25" value="&amp;nbsp;View Leaves" style="ellipse;whiteSpace=wrap;html=1;" parent="1" vertex="1">
          <mxGeometry x="470.4899999999999" y="2800" width="107.18" height="30" as="geometry" />
        </mxCell>
        <mxCell id="ypZqmbvmOLywoXULESOY-26" value="Edit Leaves" style="ellipse;whiteSpace=wrap;html=1;" parent="1" vertex="1">
          <mxGeometry x="466.77000000000004" y="2840" width="107.18" height="30" as="geometry" />
        </mxCell>
        <mxCell id="ypZqmbvmOLywoXULESOY-27" value="Send Leaves" style="ellipse;whiteSpace=wrap;html=1;" parent="1" vertex="1">
          <mxGeometry x="471.7999999999999" y="2890" width="107.18" height="30" as="geometry" />
        </mxCell>
        <mxCell id="ypZqmbvmOLywoXULESOY-34" value="" style="endArrow=none;html=1;rounded=0;entryX=0;entryY=0.5;entryDx=0;entryDy=0;exitX=0.5;exitY=0.5;exitDx=0;exitDy=0;exitPerimeter=0;" parent="1" source="MwN462WdX53HP3Wrhr0R-45" target="ypZqmbvmOLywoXULESOY-4" edge="1">
          <mxGeometry width="50" height="50" relative="1" as="geometry">
            <mxPoint x="150.54" y="3020" as="sourcePoint" />
            <mxPoint x="463.54" y="2885" as="targetPoint" />
          </mxGeometry>
        </mxCell>
        <mxCell id="ypZqmbvmOLywoXULESOY-110" value="View Salaries" style="ellipse;whiteSpace=wrap;html=1;" parent="1" vertex="1">
          <mxGeometry x="670.9399999999999" y="720" width="112.18" height="30" as="geometry" />
        </mxCell>
        <mxCell id="ypZqmbvmOLywoXULESOY-111" value="" style="endArrow=classic;html=1;rounded=0;dashed=1;exitX=0;exitY=0.5;exitDx=0;exitDy=0;entryX=1;entryY=0.5;entryDx=0;entryDy=0;" parent="1" source="ypZqmbvmOLywoXULESOY-110" target="MwN462WdX53HP3Wrhr0R-2" edge="1">
          <mxGeometry width="50" height="50" relative="1" as="geometry">
            <mxPoint x="720.14" y="695" as="sourcePoint" />
            <mxPoint x="582.14" y="685" as="targetPoint" />
          </mxGeometry>
        </mxCell>
        <mxCell id="ypZqmbvmOLywoXULESOY-112" value="&amp;lt;&amp;lt;Extend&amp;gt;&amp;gt;" style="text;html=1;strokeColor=none;fillColor=none;align=center;verticalAlign=middle;whiteSpace=wrap;rounded=0;rotation=0;" parent="1" vertex="1">
          <mxGeometry x="606.2300000000001" y="720" width="31.87" height="10" as="geometry" />
        </mxCell>
        <mxCell id="ypZqmbvmOLywoXULESOY-120" value="Email Accepted Purchase Orders" style="ellipse;whiteSpace=wrap;html=1;" parent="1" vertex="1">
          <mxGeometry x="438.7999999999999" y="2452" width="182.42" height="30" as="geometry" />
        </mxCell>
        <mxCell id="BOkzQID2HZodJSRwCA9G-171" value="View Welfare Allowances" style="ellipse;whiteSpace=wrap;html=1;" parent="1" vertex="1">
          <mxGeometry x="460.54" y="2985" width="131.39" height="30" as="geometry" />
        </mxCell>
        <mxCell id="BOkzQID2HZodJSRwCA9G-173" value="" style="endArrow=none;html=1;rounded=0;entryX=0.5;entryY=0.5;entryDx=0;entryDy=0;entryPerimeter=0;exitX=0;exitY=0.5;exitDx=0;exitDy=0;" parent="1" source="BOkzQID2HZodJSRwCA9G-171" target="MwN462WdX53HP3Wrhr0R-45" edge="1">
          <mxGeometry width="50" height="50" relative="1" as="geometry">
            <mxPoint x="530.54" y="2890" as="sourcePoint" />
            <mxPoint x="580.54" y="2840" as="targetPoint" />
          </mxGeometry>
        </mxCell>
        <mxCell id="BOkzQID2HZodJSRwCA9G-174" value="" style="endArrow=none;html=1;rounded=0;entryX=0;entryY=0.5;entryDx=0;entryDy=0;exitX=0.5;exitY=0.5;exitDx=0;exitDy=0;exitPerimeter=0;" parent="1" source="Q5sI1NLIctSWAqXv6nS5-3" target="Q5sI1NLIctSWAqXv6nS5-8" edge="1">
          <mxGeometry width="50" height="50" relative="1" as="geometry">
            <mxPoint x="560" y="610" as="sourcePoint" />
            <mxPoint x="610" y="560" as="targetPoint" />
          </mxGeometry>
        </mxCell>
        <mxCell id="BOkzQID2HZodJSRwCA9G-175" value="" style="endArrow=none;html=1;rounded=0;entryX=0;entryY=0.5;entryDx=0;entryDy=0;exitX=0.5;exitY=0.5;exitDx=0;exitDy=0;exitPerimeter=0;" parent="1" source="Q5sI1NLIctSWAqXv6nS5-3" target="Q5sI1NLIctSWAqXv6nS5-11" edge="1">
          <mxGeometry width="50" height="50" relative="1" as="geometry">
            <mxPoint x="560" y="610" as="sourcePoint" />
            <mxPoint x="610" y="560" as="targetPoint" />
          </mxGeometry>
        </mxCell>
        <mxCell id="BOkzQID2HZodJSRwCA9G-176" value="" style="endArrow=none;html=1;rounded=0;entryX=0;entryY=0.5;entryDx=0;entryDy=0;exitX=0.5;exitY=0.5;exitDx=0;exitDy=0;exitPerimeter=0;" parent="1" source="Q5sI1NLIctSWAqXv6nS5-3" target="Q5sI1NLIctSWAqXv6nS5-15" edge="1">
          <mxGeometry width="50" height="50" relative="1" as="geometry">
            <mxPoint x="560" y="610" as="sourcePoint" />
            <mxPoint x="610" y="560" as="targetPoint" />
          </mxGeometry>
        </mxCell>
        <mxCell id="BOkzQID2HZodJSRwCA9G-177" value="" style="endArrow=none;html=1;rounded=0;entryX=0;entryY=0.5;entryDx=0;entryDy=0;exitX=0.5;exitY=0.5;exitDx=0;exitDy=0;exitPerimeter=0;" parent="1" source="Q5sI1NLIctSWAqXv6nS5-3" target="Q5sI1NLIctSWAqXv6nS5-14" edge="1">
          <mxGeometry width="50" height="50" relative="1" as="geometry">
            <mxPoint x="560" y="610" as="sourcePoint" />
            <mxPoint x="610" y="560" as="targetPoint" />
          </mxGeometry>
        </mxCell>
        <mxCell id="BOkzQID2HZodJSRwCA9G-178" value="" style="endArrow=none;html=1;rounded=0;entryX=0;entryY=0.5;entryDx=0;entryDy=0;exitX=0.5;exitY=0.5;exitDx=0;exitDy=0;exitPerimeter=0;" parent="1" source="Q5sI1NLIctSWAqXv6nS5-3" target="MwN462WdX53HP3Wrhr0R-12" edge="1">
          <mxGeometry width="50" height="50" relative="1" as="geometry">
            <mxPoint x="560" y="610" as="sourcePoint" />
            <mxPoint x="610" y="560" as="targetPoint" />
          </mxGeometry>
        </mxCell>
        <mxCell id="BOkzQID2HZodJSRwCA9G-179" value="" style="endArrow=none;html=1;rounded=0;entryX=0;entryY=0.5;entryDx=0;entryDy=0;exitX=0.5;exitY=0.5;exitDx=0;exitDy=0;exitPerimeter=0;" parent="1" source="Q5sI1NLIctSWAqXv6nS5-3" target="MwN462WdX53HP3Wrhr0R-11" edge="1">
          <mxGeometry width="50" height="50" relative="1" as="geometry">
            <mxPoint x="560" y="610" as="sourcePoint" />
            <mxPoint x="610" y="560" as="targetPoint" />
          </mxGeometry>
        </mxCell>
        <mxCell id="BOkzQID2HZodJSRwCA9G-180" value="" style="endArrow=none;html=1;rounded=0;entryX=0;entryY=0.5;entryDx=0;entryDy=0;exitX=0.5;exitY=0.5;exitDx=0;exitDy=0;exitPerimeter=0;" parent="1" source="Q5sI1NLIctSWAqXv6nS5-3" target="MwN462WdX53HP3Wrhr0R-10" edge="1">
          <mxGeometry width="50" height="50" relative="1" as="geometry">
            <mxPoint x="560" y="610" as="sourcePoint" />
            <mxPoint x="610" y="560" as="targetPoint" />
          </mxGeometry>
        </mxCell>
        <mxCell id="BOkzQID2HZodJSRwCA9G-181" value="" style="endArrow=none;html=1;rounded=0;exitX=0.5;exitY=0.5;exitDx=0;exitDy=0;exitPerimeter=0;entryX=0;entryY=0.5;entryDx=0;entryDy=0;" parent="1" source="Q5sI1NLIctSWAqXv6nS5-3" target="MwN462WdX53HP3Wrhr0R-17" edge="1">
          <mxGeometry width="50" height="50" relative="1" as="geometry">
            <mxPoint x="560" y="1010" as="sourcePoint" />
            <mxPoint x="610" y="960" as="targetPoint" />
          </mxGeometry>
        </mxCell>
        <mxCell id="BOkzQID2HZodJSRwCA9G-182" value="" style="endArrow=none;html=1;rounded=0;exitX=0.5;exitY=0.5;exitDx=0;exitDy=0;exitPerimeter=0;entryX=0;entryY=0.5;entryDx=0;entryDy=0;" parent="1" source="Q5sI1NLIctSWAqXv6nS5-3" target="MwN462WdX53HP3Wrhr0R-18" edge="1">
          <mxGeometry width="50" height="50" relative="1" as="geometry">
            <mxPoint x="560" y="1010" as="sourcePoint" />
            <mxPoint x="610" y="960" as="targetPoint" />
          </mxGeometry>
        </mxCell>
        <mxCell id="BOkzQID2HZodJSRwCA9G-183" value="" style="endArrow=none;html=1;rounded=0;entryX=0;entryY=0;entryDx=0;entryDy=0;exitX=0.5;exitY=0.5;exitDx=0;exitDy=0;exitPerimeter=0;" parent="1" source="Q5sI1NLIctSWAqXv6nS5-3" target="MwN462WdX53HP3Wrhr0R-16" edge="1">
          <mxGeometry width="50" height="50" relative="1" as="geometry">
            <mxPoint x="150" y="755" as="sourcePoint" />
            <mxPoint x="610" y="960" as="targetPoint" />
          </mxGeometry>
        </mxCell>
        <mxCell id="_A97ejmeEC8x48Gnu8S2-2" value="Update GRN" style="ellipse;whiteSpace=wrap;html=1;" parent="1" vertex="1">
          <mxGeometry x="488.46999999999997" y="2232" width="114.37" height="30" as="geometry" />
        </mxCell>
        <mxCell id="_A97ejmeEC8x48Gnu8S2-5" value="View Employee" style="ellipse;whiteSpace=wrap;html=1;" parent="1" vertex="1">
          <mxGeometry x="498.85" y="290" width="105" height="30" as="geometry" />
        </mxCell>
        <mxCell id="_A97ejmeEC8x48Gnu8S2-7" value="" style="endArrow=none;html=1;rounded=0;entryX=0;entryY=0.5;entryDx=0;entryDy=0;exitX=0.5;exitY=0.5;exitDx=0;exitDy=0;exitPerimeter=0;" parent="1" source="Q5sI1NLIctSWAqXv6nS5-3" target="_A97ejmeEC8x48Gnu8S2-5" edge="1">
          <mxGeometry width="50" height="50" relative="1" as="geometry">
            <mxPoint x="560" y="530" as="sourcePoint" />
            <mxPoint x="610" y="480" as="targetPoint" />
          </mxGeometry>
        </mxCell>
        <mxCell id="WUmR9_6dKOQ0MQpu5pCk-4" value="Update Welfare Allowances" style="ellipse;whiteSpace=wrap;html=1;" parent="1" vertex="1">
          <mxGeometry x="456.38000000000017" y="810" width="156.86" height="30" as="geometry" />
        </mxCell>
        <mxCell id="WUmR9_6dKOQ0MQpu5pCk-5" value="" style="endArrow=none;html=1;rounded=0;exitX=0.5;exitY=0.5;exitDx=0;exitDy=0;exitPerimeter=0;entryX=0;entryY=0.5;entryDx=0;entryDy=0;" parent="1" source="Q5sI1NLIctSWAqXv6nS5-3" target="WUmR9_6dKOQ0MQpu5pCk-4" edge="1">
          <mxGeometry width="50" height="50" relative="1" as="geometry">
            <mxPoint x="610" y="960" as="sourcePoint" />
            <mxPoint x="660" y="910" as="targetPoint" />
          </mxGeometry>
        </mxCell>
        <mxCell id="W0PUgiNZi0_eaFYbVzRM-2" value="View Monthly Invoice" style="ellipse;whiteSpace=wrap;html=1;" parent="1" vertex="1">
          <mxGeometry x="664.6" y="3150" width="121.64" height="40" as="geometry" />
        </mxCell>
        <mxCell id="W0PUgiNZi0_eaFYbVzRM-3" value="View Annual Invoice" style="ellipse;whiteSpace=wrap;html=1;" parent="1" vertex="1">
          <mxGeometry x="647.0999999999999" y="3200" width="111.56" height="40" as="geometry" />
        </mxCell>
        <mxCell id="W0PUgiNZi0_eaFYbVzRM-9" value="Logout" style="ellipse;whiteSpace=wrap;html=1;" parent="1" vertex="1">
          <mxGeometry x="445.15999999999997" y="1940" width="116.78" height="20" as="geometry" />
        </mxCell>
        <mxCell id="W0PUgiNZi0_eaFYbVzRM-10" value="Assistant Pharmacist" style="shape=umlActor;verticalLabelPosition=bottom;verticalAlign=top;html=1;outlineConnect=0;" parent="1" vertex="1">
          <mxGeometry x="110" y="1390" width="60" height="120" as="geometry" />
        </mxCell>
        <mxCell id="W0PUgiNZi0_eaFYbVzRM-11" value="Login" style="ellipse;whiteSpace=wrap;html=1;" parent="1" vertex="1">
          <mxGeometry x="460.84999999999997" y="1240" width="95.23" height="30" as="geometry" />
        </mxCell>
        <mxCell id="W0PUgiNZi0_eaFYbVzRM-12" value="Add Items" style="ellipse;whiteSpace=wrap;html=1;" parent="1" vertex="1">
          <mxGeometry x="456.94" y="1280" width="105" height="30" as="geometry" />
        </mxCell>
        <mxCell id="W0PUgiNZi0_eaFYbVzRM-13" value="Update Items" style="ellipse;whiteSpace=wrap;html=1;" parent="1" vertex="1">
          <mxGeometry x="463.07999999999987" y="1320" width="95" height="30" as="geometry" />
        </mxCell>
        <mxCell id="W0PUgiNZi0_eaFYbVzRM-14" value="Delete Items" style="ellipse;whiteSpace=wrap;html=1;" parent="1" vertex="1">
          <mxGeometry x="463.08" y="1360" width="95" height="30" as="geometry" />
        </mxCell>
        <mxCell id="W0PUgiNZi0_eaFYbVzRM-15" value="Add Damaged Items" style="ellipse;whiteSpace=wrap;html=1;" parent="1" vertex="1">
          <mxGeometry x="460.78999999999996" y="1440" width="132.18" height="30" as="geometry" />
        </mxCell>
        <mxCell id="W0PUgiNZi0_eaFYbVzRM-16" value="View Item Stock Level" style="ellipse;whiteSpace=wrap;html=1;" parent="1" vertex="1">
          <mxGeometry x="704.76" y="1480" width="142.18" height="30" as="geometry" />
        </mxCell>
        <mxCell id="W0PUgiNZi0_eaFYbVzRM-17" value="View Damaged&amp;nbsp; Items" style="ellipse;whiteSpace=wrap;html=1;" parent="1" vertex="1">
          <mxGeometry x="709.37" y="1530" width="131.86" height="30" as="geometry" />
        </mxCell>
        <mxCell id="W0PUgiNZi0_eaFYbVzRM-18" value="Delete Expired Items" style="ellipse;whiteSpace=wrap;html=1;" parent="1" vertex="1">
          <mxGeometry x="421.96999999999997" y="1610" width="140.77" height="30" as="geometry" />
        </mxCell>
        <mxCell id="W0PUgiNZi0_eaFYbVzRM-19" value="View Items" style="ellipse;whiteSpace=wrap;html=1;" parent="1" vertex="1">
          <mxGeometry x="456.51" y="1526" width="120.62" height="34" as="geometry" />
        </mxCell>
        <mxCell id="W0PUgiNZi0_eaFYbVzRM-20" value="Sort Items" style="ellipse;whiteSpace=wrap;html=1;" parent="1" vertex="1">
          <mxGeometry x="648.8899999999999" y="1440" width="107.18" height="30" as="geometry" />
        </mxCell>
        <mxCell id="W0PUgiNZi0_eaFYbVzRM-21" value="Categorize Items" style="ellipse;whiteSpace=wrap;html=1;" parent="1" vertex="1">
          <mxGeometry x="428.65000000000003" y="1660" width="114.05" height="30" as="geometry" />
        </mxCell>
        <mxCell id="W0PUgiNZi0_eaFYbVzRM-22" value="&amp;lt;&amp;lt;Extend&amp;gt;&amp;gt;" style="text;html=1;strokeColor=none;fillColor=none;align=center;verticalAlign=middle;whiteSpace=wrap;rounded=0;rotation=0;" parent="1" vertex="1">
          <mxGeometry x="585.6300000000001" y="1470" width="32.19" height="26" as="geometry" />
        </mxCell>
        <mxCell id="W0PUgiNZi0_eaFYbVzRM-23" value="" style="endArrow=classic;html=1;rounded=0;dashed=1;exitX=0;exitY=1;exitDx=0;exitDy=0;entryX=1;entryY=0;entryDx=0;entryDy=0;" parent="1" source="W0PUgiNZi0_eaFYbVzRM-20" target="W0PUgiNZi0_eaFYbVzRM-19" edge="1">
          <mxGeometry width="50" height="50" relative="1" as="geometry">
            <mxPoint x="709" y="1138" as="sourcePoint" />
            <mxPoint x="610" y="1064" as="targetPoint" />
          </mxGeometry>
        </mxCell>
        <mxCell id="W0PUgiNZi0_eaFYbVzRM-24" value="" style="endArrow=none;html=1;rounded=0;entryX=0;entryY=0.5;entryDx=0;entryDy=0;exitX=0.5;exitY=0.5;exitDx=0;exitDy=0;exitPerimeter=0;" parent="1" source="W0PUgiNZi0_eaFYbVzRM-10" target="W0PUgiNZi0_eaFYbVzRM-11" edge="1">
          <mxGeometry width="50" height="50" relative="1" as="geometry">
            <mxPoint x="650" y="1520" as="sourcePoint" />
            <mxPoint x="700" y="1470" as="targetPoint" />
          </mxGeometry>
        </mxCell>
        <mxCell id="W0PUgiNZi0_eaFYbVzRM-25" value="" style="endArrow=none;html=1;rounded=0;entryX=0;entryY=0.5;entryDx=0;entryDy=0;exitX=0.5;exitY=0.5;exitDx=0;exitDy=0;exitPerimeter=0;" parent="1" source="W0PUgiNZi0_eaFYbVzRM-10" target="W0PUgiNZi0_eaFYbVzRM-15" edge="1">
          <mxGeometry width="50" height="50" relative="1" as="geometry">
            <mxPoint x="650" y="1520" as="sourcePoint" />
            <mxPoint x="700" y="1470" as="targetPoint" />
          </mxGeometry>
        </mxCell>
        <mxCell id="W0PUgiNZi0_eaFYbVzRM-26" value="" style="endArrow=none;html=1;rounded=0;entryX=0;entryY=0.5;entryDx=0;entryDy=0;exitX=0.5;exitY=0.5;exitDx=0;exitDy=0;exitPerimeter=0;" parent="1" source="W0PUgiNZi0_eaFYbVzRM-10" target="W0PUgiNZi0_eaFYbVzRM-12" edge="1">
          <mxGeometry width="50" height="50" relative="1" as="geometry">
            <mxPoint x="650" y="1520" as="sourcePoint" />
            <mxPoint x="480.0000000000086" y="1365" as="targetPoint" />
          </mxGeometry>
        </mxCell>
        <mxCell id="W0PUgiNZi0_eaFYbVzRM-27" value="" style="endArrow=none;html=1;rounded=0;entryX=0;entryY=0.5;entryDx=0;entryDy=0;exitX=0.5;exitY=0.5;exitDx=0;exitDy=0;exitPerimeter=0;" parent="1" source="W0PUgiNZi0_eaFYbVzRM-10" target="W0PUgiNZi0_eaFYbVzRM-18" edge="1">
          <mxGeometry width="50" height="50" relative="1" as="geometry">
            <mxPoint x="150" y="1460" as="sourcePoint" />
            <mxPoint x="434" y="1525" as="targetPoint" />
          </mxGeometry>
        </mxCell>
        <mxCell id="W0PUgiNZi0_eaFYbVzRM-28" value="" style="endArrow=none;html=1;rounded=0;entryX=0;entryY=0.5;entryDx=0;entryDy=0;exitX=0.5;exitY=0.5;exitDx=0;exitDy=0;exitPerimeter=0;" parent="1" source="W0PUgiNZi0_eaFYbVzRM-10" target="W0PUgiNZi0_eaFYbVzRM-21" edge="1">
          <mxGeometry width="50" height="50" relative="1" as="geometry">
            <mxPoint x="160" y="1470" as="sourcePoint" />
            <mxPoint x="444" y="1535" as="targetPoint" />
          </mxGeometry>
        </mxCell>
        <mxCell id="W0PUgiNZi0_eaFYbVzRM-29" value="" style="endArrow=none;html=1;rounded=0;entryX=0;entryY=0.5;entryDx=0;entryDy=0;exitX=0.5;exitY=0.5;exitDx=0;exitDy=0;exitPerimeter=0;" parent="1" source="W0PUgiNZi0_eaFYbVzRM-10" target="W0PUgiNZi0_eaFYbVzRM-31" edge="1">
          <mxGeometry width="50" height="50" relative="1" as="geometry">
            <mxPoint x="170" y="1480" as="sourcePoint" />
            <mxPoint x="454" y="1545" as="targetPoint" />
          </mxGeometry>
        </mxCell>
        <mxCell id="W0PUgiNZi0_eaFYbVzRM-30" value="" style="endArrow=none;html=1;rounded=0;entryX=0;entryY=0.5;entryDx=0;entryDy=0;exitX=0.5;exitY=0.5;exitDx=0;exitDy=0;exitPerimeter=0;" parent="1" source="W0PUgiNZi0_eaFYbVzRM-10" target="W0PUgiNZi0_eaFYbVzRM-9" edge="1">
          <mxGeometry width="50" height="50" relative="1" as="geometry">
            <mxPoint x="180" y="1490" as="sourcePoint" />
            <mxPoint x="457" y="1860" as="targetPoint" />
          </mxGeometry>
        </mxCell>
        <mxCell id="W0PUgiNZi0_eaFYbVzRM-31" value="Apply For Leaves" style="ellipse;whiteSpace=wrap;html=1;" parent="1" vertex="1">
          <mxGeometry x="423.27000000000004" y="1700" width="131.39" height="30" as="geometry" />
        </mxCell>
        <mxCell id="W0PUgiNZi0_eaFYbVzRM-32" value="View Salary" style="ellipse;whiteSpace=wrap;html=1;" parent="1" vertex="1">
          <mxGeometry x="430.55" y="1860" width="131.39" height="30" as="geometry" />
        </mxCell>
        <mxCell id="W0PUgiNZi0_eaFYbVzRM-33" value="Search Items" style="ellipse;whiteSpace=wrap;html=1;" parent="1" vertex="1">
          <mxGeometry x="466.93999999999994" y="1400" width="95" height="30" as="geometry" />
        </mxCell>
        <mxCell id="W0PUgiNZi0_eaFYbVzRM-34" value="&amp;nbsp;View Leaves" style="ellipse;whiteSpace=wrap;html=1;" parent="1" vertex="1">
          <mxGeometry x="432.0799999999998" y="1740" width="107.18" height="30" as="geometry" />
        </mxCell>
        <mxCell id="W0PUgiNZi0_eaFYbVzRM-35" value="Edit Leaves" style="ellipse;whiteSpace=wrap;html=1;" parent="1" vertex="1">
          <mxGeometry x="435.52" y="1780" width="107.18" height="30" as="geometry" />
        </mxCell>
        <mxCell id="W0PUgiNZi0_eaFYbVzRM-42" value="" style="endArrow=none;html=1;rounded=0;entryX=0;entryY=0.5;entryDx=0;entryDy=0;exitX=0.5;exitY=0.5;exitDx=0;exitDy=0;exitPerimeter=0;" parent="1" source="W0PUgiNZi0_eaFYbVzRM-10" target="W0PUgiNZi0_eaFYbVzRM-32" edge="1">
          <mxGeometry width="50" height="50" relative="1" as="geometry">
            <mxPoint x="150" y="1460" as="sourcePoint" />
            <mxPoint x="432" y="1735" as="targetPoint" />
          </mxGeometry>
        </mxCell>
        <mxCell id="W0PUgiNZi0_eaFYbVzRM-43" value="View Expired Items" style="ellipse;whiteSpace=wrap;html=1;" parent="1" vertex="1">
          <mxGeometry x="714.6099999999999" y="1580" width="132.33" height="30" as="geometry" />
        </mxCell>
        <mxCell id="W0PUgiNZi0_eaFYbVzRM-44" value="" style="endArrow=classic;html=1;rounded=0;dashed=1;exitX=1;exitY=0.5;exitDx=0;exitDy=0;entryX=0;entryY=1;entryDx=0;entryDy=0;" parent="1" source="W0PUgiNZi0_eaFYbVzRM-18" target="W0PUgiNZi0_eaFYbVzRM-43" edge="1">
          <mxGeometry width="50" height="50" relative="1" as="geometry">
            <mxPoint x="786" y="1581" as="sourcePoint" />
            <mxPoint x="711.94" y="1590" as="targetPoint" />
          </mxGeometry>
        </mxCell>
        <mxCell id="W0PUgiNZi0_eaFYbVzRM-46" value="" style="endArrow=none;html=1;rounded=0;entryX=0;entryY=0.5;entryDx=0;entryDy=0;exitX=0.5;exitY=0.5;exitDx=0;exitDy=0;exitPerimeter=0;" parent="1" source="W0PUgiNZi0_eaFYbVzRM-10" target="W0PUgiNZi0_eaFYbVzRM-19" edge="1">
          <mxGeometry width="50" height="50" relative="1" as="geometry">
            <mxPoint x="550" y="1610" as="sourcePoint" />
            <mxPoint x="600" y="1560" as="targetPoint" />
          </mxGeometry>
        </mxCell>
        <mxCell id="W0PUgiNZi0_eaFYbVzRM-47" value="Send Leaves" style="ellipse;whiteSpace=wrap;html=1;" parent="1" vertex="1">
          <mxGeometry x="437.5099999999999" y="1820" width="107.18" height="30" as="geometry" />
        </mxCell>
        <mxCell id="W0PUgiNZi0_eaFYbVzRM-48" value="View Welfare Allowances" style="ellipse;whiteSpace=wrap;html=1;" parent="1" vertex="1">
          <mxGeometry x="442.5" y="1900" width="131.39" height="30" as="geometry" />
        </mxCell>
        <mxCell id="W0PUgiNZi0_eaFYbVzRM-49" value="" style="endArrow=none;html=1;rounded=0;entryX=0.5;entryY=0.5;entryDx=0;entryDy=0;entryPerimeter=0;exitX=0;exitY=0.5;exitDx=0;exitDy=0;" parent="1" source="W0PUgiNZi0_eaFYbVzRM-48" target="W0PUgiNZi0_eaFYbVzRM-10" edge="1">
          <mxGeometry width="50" height="50" relative="1" as="geometry">
            <mxPoint x="550" y="2040" as="sourcePoint" />
            <mxPoint x="600" y="1990" as="targetPoint" />
          </mxGeometry>
        </mxCell>
        <mxCell id="W0PUgiNZi0_eaFYbVzRM-50" value="" style="endArrow=none;html=1;rounded=0;entryX=0;entryY=0.5;entryDx=0;entryDy=0;exitX=0.5;exitY=0.5;exitDx=0;exitDy=0;exitPerimeter=0;" parent="1" source="W0PUgiNZi0_eaFYbVzRM-10" target="W0PUgiNZi0_eaFYbVzRM-13" edge="1">
          <mxGeometry width="50" height="50" relative="1" as="geometry">
            <mxPoint x="451.94" y="1510" as="sourcePoint" />
            <mxPoint x="501.94" y="1460" as="targetPoint" />
          </mxGeometry>
        </mxCell>
        <mxCell id="W0PUgiNZi0_eaFYbVzRM-51" value="" style="endArrow=none;html=1;rounded=0;entryX=0;entryY=0.5;entryDx=0;entryDy=0;exitX=0.5;exitY=0.5;exitDx=0;exitDy=0;exitPerimeter=0;" parent="1" source="W0PUgiNZi0_eaFYbVzRM-10" target="W0PUgiNZi0_eaFYbVzRM-14" edge="1">
          <mxGeometry width="50" height="50" relative="1" as="geometry">
            <mxPoint x="451.94" y="1510" as="sourcePoint" />
            <mxPoint x="501.94" y="1460" as="targetPoint" />
          </mxGeometry>
        </mxCell>
        <mxCell id="W0PUgiNZi0_eaFYbVzRM-52" value="" style="endArrow=none;html=1;rounded=0;entryX=0;entryY=0.5;entryDx=0;entryDy=0;exitX=0.5;exitY=0.5;exitDx=0;exitDy=0;exitPerimeter=0;" parent="1" source="W0PUgiNZi0_eaFYbVzRM-10" target="W0PUgiNZi0_eaFYbVzRM-33" edge="1">
          <mxGeometry width="50" height="50" relative="1" as="geometry">
            <mxPoint x="451.94" y="1510" as="sourcePoint" />
            <mxPoint x="501.94" y="1460" as="targetPoint" />
          </mxGeometry>
        </mxCell>
        <mxCell id="W0PUgiNZi0_eaFYbVzRM-53" value="Update Damaged Items" style="ellipse;whiteSpace=wrap;html=1;" parent="1" vertex="1">
          <mxGeometry x="411.94" y="1480" width="133.53" height="30" as="geometry" />
        </mxCell>
        <mxCell id="W0PUgiNZi0_eaFYbVzRM-54" value="" style="endArrow=none;html=1;rounded=0;exitX=0.5;exitY=0.5;exitDx=0;exitDy=0;exitPerimeter=0;entryX=0;entryY=0.5;entryDx=0;entryDy=0;" parent="1" source="W0PUgiNZi0_eaFYbVzRM-10" target="W0PUgiNZi0_eaFYbVzRM-53" edge="1">
          <mxGeometry width="50" height="50" relative="1" as="geometry">
            <mxPoint x="601.94" y="1530" as="sourcePoint" />
            <mxPoint x="651.94" y="1480" as="targetPoint" />
          </mxGeometry>
        </mxCell>
        <mxCell id="W0PUgiNZi0_eaFYbVzRM-55" value="" style="endArrow=none;html=1;rounded=0;entryX=0;entryY=0.5;entryDx=0;entryDy=0;exitX=0;exitY=0.5;exitDx=0;exitDy=0;" parent="1" source="W0PUgiNZi0_eaFYbVzRM-43" target="W0PUgiNZi0_eaFYbVzRM-16" edge="1">
          <mxGeometry width="50" height="50" relative="1" as="geometry">
            <mxPoint x="721.94" y="1590" as="sourcePoint" />
            <mxPoint x="581.94" y="1530" as="targetPoint" />
            <Array as="points">
              <mxPoint x="676.94" y="1595" />
              <mxPoint x="676.94" y="1495" />
            </Array>
          </mxGeometry>
        </mxCell>
        <mxCell id="W0PUgiNZi0_eaFYbVzRM-56" value="" style="endArrow=classic;html=1;rounded=0;entryX=1;entryY=0.5;entryDx=0;entryDy=0;exitX=0;exitY=0.5;exitDx=0;exitDy=0;" parent="1" source="W0PUgiNZi0_eaFYbVzRM-17" target="W0PUgiNZi0_eaFYbVzRM-19" edge="1">
          <mxGeometry width="50" height="50" relative="1" as="geometry">
            <mxPoint x="691.94" y="1560" as="sourcePoint" />
            <mxPoint x="581.94" y="1530" as="targetPoint" />
          </mxGeometry>
        </mxCell>
        <mxCell id="W0PUgiNZi0_eaFYbVzRM-57" value="" style="endArrow=none;html=1;rounded=0;exitX=0;exitY=0.5;exitDx=0;exitDy=0;entryX=0;entryY=0.5;entryDx=0;entryDy=0;" parent="1" source="W0PUgiNZi0_eaFYbVzRM-3" target="W0PUgiNZi0_eaFYbVzRM-2" edge="1">
          <mxGeometry width="50" height="50" relative="1" as="geometry">
            <mxPoint x="680.54" y="3110" as="sourcePoint" />
            <mxPoint x="730.54" y="3060" as="targetPoint" />
            <Array as="points">
              <mxPoint x="620.54" y="3210" />
              <mxPoint x="640" y="3160" />
            </Array>
          </mxGeometry>
        </mxCell>
        <mxCell id="W0PUgiNZi0_eaFYbVzRM-58" value="" style="endArrow=classic;html=1;rounded=0;entryX=1;entryY=1;entryDx=0;entryDy=0;" parent="1" target="DdaBgIDJm33HpV0CEYMT-76" edge="1">
          <mxGeometry width="50" height="50" relative="1" as="geometry">
            <mxPoint x="631" y="3180" as="sourcePoint" />
            <mxPoint x="730.54" y="3060" as="targetPoint" />
          </mxGeometry>
        </mxCell>
        <mxCell id="W0PUgiNZi0_eaFYbVzRM-59" value="" style="endArrow=classic;html=1;rounded=0;" parent="1" edge="1">
          <mxGeometry width="50" height="50" relative="1" as="geometry">
            <mxPoint x="150" y="2110" as="sourcePoint" />
            <mxPoint x="150" y="1530" as="targetPoint" />
          </mxGeometry>
        </mxCell>
        <mxCell id="h8tTlmWloos6FV5FRLrC-1" value="Update Stock" style="ellipse;whiteSpace=wrap;html=1;" parent="1" vertex="1">
          <mxGeometry x="428.65" y="1570" width="120.62" height="34" as="geometry" />
        </mxCell>
        <mxCell id="h8tTlmWloos6FV5FRLrC-2" value="" style="endArrow=none;html=1;rounded=0;exitX=0.5;exitY=0.5;exitDx=0;exitDy=0;exitPerimeter=0;entryX=0;entryY=0.5;entryDx=0;entryDy=0;" parent="1" source="W0PUgiNZi0_eaFYbVzRM-10" target="h8tTlmWloos6FV5FRLrC-1" edge="1">
          <mxGeometry width="50" height="50" relative="1" as="geometry">
            <mxPoint x="485.37" y="1590" as="sourcePoint" />
            <mxPoint x="535.37" y="1540" as="targetPoint" />
          </mxGeometry>
        </mxCell>
        <mxCell id="P4n2ECHBo5h8_3MseyOP-2" value="&lt;font style=&quot;font-size: 24px;&quot;&gt;Pharmacy Management System&lt;/font&gt;" style="text;html=1;strokeColor=none;fillColor=none;align=center;verticalAlign=middle;whiteSpace=wrap;rounded=0;" parent="1" vertex="1">
          <mxGeometry x="300" y="20" width="560" height="50" as="geometry" />
        </mxCell>
        <mxCell id="P4n2ECHBo5h8_3MseyOP-3" value="" style="endArrow=none;html=1;rounded=0;exitX=0.5;exitY=0.5;exitDx=0;exitDy=0;exitPerimeter=0;entryX=0;entryY=0.5;entryDx=0;entryDy=0;" parent="1" source="MwN462WdX53HP3Wrhr0R-23" target="_A97ejmeEC8x48Gnu8S2-2" edge="1">
          <mxGeometry width="50" height="50" relative="1" as="geometry">
            <mxPoint x="560.01" y="2422" as="sourcePoint" />
            <mxPoint x="610.01" y="2372" as="targetPoint" />
          </mxGeometry>
        </mxCell>
        <mxCell id="P4n2ECHBo5h8_3MseyOP-5" value="" style="endArrow=none;html=1;rounded=0;entryX=0;entryY=0.5;entryDx=0;entryDy=0;exitX=0.5;exitY=0.5;exitDx=0;exitDy=0;exitPerimeter=0;" parent="1" source="MwN462WdX53HP3Wrhr0R-23" target="R_i7F-9IJZue17gUuxtt-9" edge="1">
          <mxGeometry width="50" height="50" relative="1" as="geometry">
            <mxPoint x="560.01" y="2422" as="sourcePoint" />
            <mxPoint x="610.01" y="2372" as="targetPoint" />
          </mxGeometry>
        </mxCell>
        <mxCell id="P4n2ECHBo5h8_3MseyOP-6" value="" style="endArrow=none;html=1;rounded=0;entryX=0;entryY=0.5;entryDx=0;entryDy=0;exitX=0.5;exitY=0.5;exitDx=0;exitDy=0;exitPerimeter=0;" parent="1" source="MwN462WdX53HP3Wrhr0R-23" target="DdaBgIDJm33HpV0CEYMT-83" edge="1">
          <mxGeometry width="50" height="50" relative="1" as="geometry">
            <mxPoint x="162.01" y="2193" as="sourcePoint" />
            <mxPoint x="483.01" y="2079" as="targetPoint" />
          </mxGeometry>
        </mxCell>
        <mxCell id="P4n2ECHBo5h8_3MseyOP-7" value="" style="endArrow=none;html=1;rounded=0;entryX=0;entryY=0.5;entryDx=0;entryDy=0;exitX=0.5;exitY=0.5;exitDx=0;exitDy=0;exitPerimeter=0;" parent="1" source="MwN462WdX53HP3Wrhr0R-23" target="DdaBgIDJm33HpV0CEYMT-81" edge="1">
          <mxGeometry width="50" height="50" relative="1" as="geometry">
            <mxPoint x="169.01" y="2246" as="sourcePoint" />
            <mxPoint x="490.01" y="2132" as="targetPoint" />
          </mxGeometry>
        </mxCell>
        <mxCell id="P4n2ECHBo5h8_3MseyOP-8" value="" style="endArrow=none;html=1;rounded=0;entryX=0;entryY=0.5;entryDx=0;entryDy=0;exitX=0.5;exitY=0.5;exitDx=0;exitDy=0;exitPerimeter=0;" parent="1" source="MwN462WdX53HP3Wrhr0R-23" target="DdaBgIDJm33HpV0CEYMT-89" edge="1">
          <mxGeometry width="50" height="50" relative="1" as="geometry">
            <mxPoint x="214.73999999999998" y="2216" as="sourcePoint" />
            <mxPoint x="535.74" y="2102" as="targetPoint" />
          </mxGeometry>
        </mxCell>
        <mxCell id="P4n2ECHBo5h8_3MseyOP-9" value="" style="endArrow=none;html=1;rounded=0;entryX=0;entryY=0.5;entryDx=0;entryDy=0;exitX=0.5;exitY=0.5;exitDx=0;exitDy=0;exitPerimeter=0;" parent="1" source="MwN462WdX53HP3Wrhr0R-23" target="DdaBgIDJm33HpV0CEYMT-90" edge="1">
          <mxGeometry width="50" height="50" relative="1" as="geometry">
            <mxPoint x="192.01" y="2223" as="sourcePoint" />
            <mxPoint x="513.01" y="2109" as="targetPoint" />
          </mxGeometry>
        </mxCell>
        <mxCell id="P4n2ECHBo5h8_3MseyOP-10" value="" style="endArrow=none;html=1;rounded=0;entryX=0;entryY=0.5;entryDx=0;entryDy=0;exitX=0.5;exitY=0.5;exitDx=0;exitDy=0;exitPerimeter=0;" parent="1" source="MwN462WdX53HP3Wrhr0R-23" target="ypZqmbvmOLywoXULESOY-19" edge="1">
          <mxGeometry width="50" height="50" relative="1" as="geometry">
            <mxPoint x="237.08999999999997" y="2222" as="sourcePoint" />
            <mxPoint x="558.09" y="2108" as="targetPoint" />
          </mxGeometry>
        </mxCell>
        <mxCell id="P4n2ECHBo5h8_3MseyOP-11" value="" style="endArrow=none;html=1;rounded=0;entryX=0;entryY=0.5;entryDx=0;entryDy=0;exitX=0.5;exitY=0.5;exitDx=0;exitDy=0;exitPerimeter=0;" parent="1" source="MwN462WdX53HP3Wrhr0R-23" target="ypZqmbvmOLywoXULESOY-120" edge="1">
          <mxGeometry width="50" height="50" relative="1" as="geometry">
            <mxPoint x="212.01" y="2243" as="sourcePoint" />
            <mxPoint x="533.01" y="2129" as="targetPoint" />
          </mxGeometry>
        </mxCell>
        <mxCell id="P4n2ECHBo5h8_3MseyOP-13" value="" style="endArrow=none;html=1;rounded=0;exitX=0.5;exitY=0.5;exitDx=0;exitDy=0;exitPerimeter=0;entryX=0;entryY=0.5;entryDx=0;entryDy=0;" parent="1" source="MwN462WdX53HP3Wrhr0R-45" target="ypZqmbvmOLywoXULESOY-25" edge="1">
          <mxGeometry width="50" height="50" relative="1" as="geometry">
            <mxPoint x="560.54" y="3060" as="sourcePoint" />
            <mxPoint x="610.54" y="3010" as="targetPoint" />
          </mxGeometry>
        </mxCell>
        <mxCell id="P4n2ECHBo5h8_3MseyOP-14" value="" style="endArrow=none;html=1;rounded=0;entryX=0;entryY=0.5;entryDx=0;entryDy=0;exitX=0.5;exitY=0.5;exitDx=0;exitDy=0;exitPerimeter=0;" parent="1" source="MwN462WdX53HP3Wrhr0R-45" target="ypZqmbvmOLywoXULESOY-26" edge="1">
          <mxGeometry width="50" height="50" relative="1" as="geometry">
            <mxPoint x="560.54" y="3060" as="sourcePoint" />
            <mxPoint x="610.54" y="3010" as="targetPoint" />
          </mxGeometry>
        </mxCell>
        <mxCell id="P4n2ECHBo5h8_3MseyOP-15" value="" style="endArrow=none;html=1;rounded=0;entryX=0;entryY=0.5;entryDx=0;entryDy=0;exitX=0.5;exitY=0.5;exitDx=0;exitDy=0;exitPerimeter=0;" parent="1" source="MwN462WdX53HP3Wrhr0R-45" target="ypZqmbvmOLywoXULESOY-27" edge="1">
          <mxGeometry width="50" height="50" relative="1" as="geometry">
            <mxPoint x="560.54" y="3060" as="sourcePoint" />
            <mxPoint x="610.54" y="3010" as="targetPoint" />
          </mxGeometry>
        </mxCell>
        <mxCell id="P4n2ECHBo5h8_3MseyOP-19" value="" style="endArrow=none;html=1;rounded=0;exitX=0.5;exitY=0.5;exitDx=0;exitDy=0;exitPerimeter=0;entryX=0;entryY=0.5;entryDx=0;entryDy=0;" parent="1" source="W0PUgiNZi0_eaFYbVzRM-10" target="W0PUgiNZi0_eaFYbVzRM-47" edge="1">
          <mxGeometry width="50" height="50" relative="1" as="geometry">
            <mxPoint x="350" y="1780" as="sourcePoint" />
            <mxPoint x="400" y="1730" as="targetPoint" />
          </mxGeometry>
        </mxCell>
        <mxCell id="P4n2ECHBo5h8_3MseyOP-20" value="" style="endArrow=none;html=1;rounded=0;exitX=0.5;exitY=0.5;exitDx=0;exitDy=0;exitPerimeter=0;entryX=0;entryY=0.5;entryDx=0;entryDy=0;" parent="1" source="W0PUgiNZi0_eaFYbVzRM-10" target="W0PUgiNZi0_eaFYbVzRM-35" edge="1">
          <mxGeometry width="50" height="50" relative="1" as="geometry">
            <mxPoint x="350" y="1780" as="sourcePoint" />
            <mxPoint x="400" y="1730" as="targetPoint" />
          </mxGeometry>
        </mxCell>
        <mxCell id="P4n2ECHBo5h8_3MseyOP-21" value="" style="endArrow=none;html=1;rounded=0;exitX=0.5;exitY=0.5;exitDx=0;exitDy=0;exitPerimeter=0;entryX=0;entryY=0.5;entryDx=0;entryDy=0;" parent="1" source="W0PUgiNZi0_eaFYbVzRM-10" target="W0PUgiNZi0_eaFYbVzRM-34" edge="1">
          <mxGeometry width="50" height="50" relative="1" as="geometry">
            <mxPoint x="350" y="1780" as="sourcePoint" />
            <mxPoint x="400" y="1730" as="targetPoint" />
          </mxGeometry>
        </mxCell>
        <mxCell id="P4n2ECHBo5h8_3MseyOP-22" value="View Accepted Leaves" style="ellipse;whiteSpace=wrap;html=1;" parent="1" vertex="1">
          <mxGeometry x="673.35" y="1710" width="131.86" height="30" as="geometry" />
        </mxCell>
        <mxCell id="P4n2ECHBo5h8_3MseyOP-23" value="View Rejected Leaves" style="ellipse;whiteSpace=wrap;html=1;" parent="1" vertex="1">
          <mxGeometry x="674.7699999999999" y="1760" width="132.33" height="30" as="geometry" />
        </mxCell>
        <mxCell id="P4n2ECHBo5h8_3MseyOP-24" value="" style="endArrow=classic;html=1;rounded=0;entryX=1;entryY=0.5;entryDx=0;entryDy=0;" parent="1" edge="1">
          <mxGeometry width="50" height="50" relative="1" as="geometry">
            <mxPoint x="660" y="1750" as="sourcePoint" />
            <mxPoint x="539.26" y="1753" as="targetPoint" />
          </mxGeometry>
        </mxCell>
        <mxCell id="P4n2ECHBo5h8_3MseyOP-25" value="" style="endArrow=none;html=1;rounded=0;entryX=0;entryY=0.5;entryDx=0;entryDy=0;exitX=0;exitY=0.5;exitDx=0;exitDy=0;" parent="1" source="P4n2ECHBo5h8_3MseyOP-23" target="P4n2ECHBo5h8_3MseyOP-22" edge="1">
          <mxGeometry width="50" height="50" relative="1" as="geometry">
            <mxPoint x="570" y="1850" as="sourcePoint" />
            <mxPoint x="620" y="1800" as="targetPoint" />
            <Array as="points">
              <mxPoint x="660" y="1775" />
              <mxPoint x="660" y="1725" />
            </Array>
          </mxGeometry>
        </mxCell>
        <mxCell id="P4n2ECHBo5h8_3MseyOP-29" value="View Accepted Leaves" style="ellipse;whiteSpace=wrap;html=1;" parent="1" vertex="1">
          <mxGeometry x="711.7600000000001" y="2775" width="131.86" height="30" as="geometry" />
        </mxCell>
        <mxCell id="P4n2ECHBo5h8_3MseyOP-30" value="View Rejected Leaves" style="ellipse;whiteSpace=wrap;html=1;" parent="1" vertex="1">
          <mxGeometry x="713.18" y="2825" width="132.33" height="30" as="geometry" />
        </mxCell>
        <mxCell id="P4n2ECHBo5h8_3MseyOP-31" value="" style="endArrow=classic;html=1;rounded=0;entryX=1;entryY=0.5;entryDx=0;entryDy=0;" parent="1" edge="1">
          <mxGeometry width="50" height="50" relative="1" as="geometry">
            <mxPoint x="698.4100000000001" y="2815" as="sourcePoint" />
            <mxPoint x="577.6700000000001" y="2818" as="targetPoint" />
          </mxGeometry>
        </mxCell>
        <mxCell id="P4n2ECHBo5h8_3MseyOP-32" value="" style="endArrow=none;html=1;rounded=0;entryX=0;entryY=0.5;entryDx=0;entryDy=0;exitX=0;exitY=0.5;exitDx=0;exitDy=0;" parent="1" source="P4n2ECHBo5h8_3MseyOP-30" target="P4n2ECHBo5h8_3MseyOP-29" edge="1">
          <mxGeometry width="50" height="50" relative="1" as="geometry">
            <mxPoint x="608.4100000000001" y="2915" as="sourcePoint" />
            <mxPoint x="658.4100000000001" y="2865" as="targetPoint" />
            <Array as="points">
              <mxPoint x="698.4100000000001" y="2840" />
              <mxPoint x="698.4100000000001" y="2790" />
            </Array>
          </mxGeometry>
        </mxCell>
        <mxCell id="o-PgVbqQq3T3as8ymRIb-1" value="Add Discounts" style="ellipse;whiteSpace=wrap;html=1;" parent="1" vertex="1">
          <mxGeometry x="720.47" y="3019" width="89.53" height="30" as="geometry" />
        </mxCell>
        <mxCell id="o-PgVbqQq3T3as8ymRIb-2" value="" style="endArrow=classic;html=1;rounded=0;dashed=1;exitX=0;exitY=0.5;exitDx=0;exitDy=0;entryX=1;entryY=0;entryDx=0;entryDy=0;" parent="1" source="o-PgVbqQq3T3as8ymRIb-1" target="R_i7F-9IJZue17gUuxtt-1" edge="1">
          <mxGeometry width="50" height="50" relative="1" as="geometry">
            <mxPoint x="722" y="3095" as="sourcePoint" />
            <mxPoint x="591" y="3063" as="targetPoint" />
          </mxGeometry>
        </mxCell>
        <mxCell id="o-PgVbqQq3T3as8ymRIb-3" value="&amp;lt;&amp;lt;Extend&amp;gt;&amp;gt;" style="text;html=1;strokeColor=none;fillColor=none;align=center;verticalAlign=middle;whiteSpace=wrap;rounded=0;rotation=0;" parent="1" vertex="1">
          <mxGeometry x="664.6000000000001" y="3014" width="31.87" height="14" as="geometry" />
        </mxCell>
        <mxCell id="fjSIsbB4UYFJSMkdqB7K-1" value="View Dependent" style="ellipse;whiteSpace=wrap;html=1;" parent="1" vertex="1">
          <mxGeometry x="498.86" y="450" width="104.99" height="30" as="geometry" />
        </mxCell>
        <mxCell id="fjSIsbB4UYFJSMkdqB7K-2" value="" style="endArrow=none;html=1;rounded=0;exitX=0.5;exitY=0.5;exitDx=0;exitDy=0;exitPerimeter=0;entryX=0;entryY=0.5;entryDx=0;entryDy=0;" parent="1" source="Q5sI1NLIctSWAqXv6nS5-3" target="fjSIsbB4UYFJSMkdqB7K-1" edge="1">
          <mxGeometry width="50" height="50" relative="1" as="geometry">
            <mxPoint x="560" y="590" as="sourcePoint" />
            <mxPoint x="610" y="540" as="targetPoint" />
          </mxGeometry>
        </mxCell>
        <mxCell id="cbvNo621QOs6vVMJqcom-1" value="View Supplier" style="ellipse;whiteSpace=wrap;html=1;" parent="1" vertex="1">
          <mxGeometry x="504.51999999999987" y="570" width="92.19" height="30" as="geometry" />
        </mxCell>
        <mxCell id="cbvNo621QOs6vVMJqcom-2" value="" style="endArrow=none;html=1;rounded=0;exitX=0.5;exitY=0.5;exitDx=0;exitDy=0;exitPerimeter=0;entryX=0;entryY=0.5;entryDx=0;entryDy=0;" parent="1" source="Q5sI1NLIctSWAqXv6nS5-3" target="cbvNo621QOs6vVMJqcom-1" edge="1">
          <mxGeometry width="50" height="50" relative="1" as="geometry">
            <mxPoint x="480" y="620" as="sourcePoint" />
            <mxPoint x="530" y="570" as="targetPoint" />
          </mxGeometry>
        </mxCell>
        <mxCell id="XyFDcFDq_qLHnr_uDupF-1" value="&amp;lt;&amp;lt;Include&amp;gt;&amp;gt;" style="text;html=1;strokeColor=none;fillColor=none;align=center;verticalAlign=middle;whiteSpace=wrap;rounded=0;rotation=0;" parent="1" vertex="1">
          <mxGeometry x="606.09" y="1590" width="31.87" height="14" as="geometry" />
        </mxCell>
        <mxCell id="XyFDcFDq_qLHnr_uDupF-2" value="View Daily generated GRN" style="ellipse;whiteSpace=wrap;html=1;" parent="1" vertex="1">
          <mxGeometry x="646.25" y="940" width="167.12" height="30" as="geometry" />
        </mxCell>
        <mxCell id="XyFDcFDq_qLHnr_uDupF-3" value="View Daily Generated Invoices" style="ellipse;whiteSpace=wrap;html=1;" parent="1" vertex="1">
          <mxGeometry x="646.25" y="1000" width="183.75" height="30" as="geometry" />
        </mxCell>
        <mxCell id="XyFDcFDq_qLHnr_uDupF-4" value="" style="endArrow=none;html=1;rounded=0;exitX=0;exitY=0.5;exitDx=0;exitDy=0;entryX=0;entryY=0.5;entryDx=0;entryDy=0;" parent="1" source="XyFDcFDq_qLHnr_uDupF-3" target="XyFDcFDq_qLHnr_uDupF-2" edge="1">
          <mxGeometry width="50" height="50" relative="1" as="geometry">
            <mxPoint x="570" y="960" as="sourcePoint" />
            <mxPoint x="620" y="910" as="targetPoint" />
          </mxGeometry>
        </mxCell>
        <mxCell id="XyFDcFDq_qLHnr_uDupF-6" value="" style="endArrow=classic;html=1;rounded=0;entryX=1;entryY=0.5;entryDx=0;entryDy=0;" parent="1" target="DdaBgIDJm33HpV0CEYMT-58" edge="1">
          <mxGeometry width="50" height="50" relative="1" as="geometry">
            <mxPoint x="650" y="995" as="sourcePoint" />
            <mxPoint x="620" y="910" as="targetPoint" />
          </mxGeometry>
        </mxCell>
      </root>
    </mxGraphModel>
  </diagram>
</mxfile>
